%FSLAX25Y25*%
%MOIN*%
G70*
G01*
G75*
G04 Layer_Color=32896*
%ADD10R,0.07874X0.03937*%
%ADD11R,0.03937X0.07874*%
%ADD12R,0.05906X0.03150*%
%ADD13R,0.03150X0.03937*%
%ADD14R,0.10000X0.05000*%
%ADD15R,0.04331X0.05512*%
%ADD16R,0.00787X0.03150*%
%ADD17R,0.03937X0.03937*%
%ADD18C,0.01575*%
%ADD19C,0.03150*%
%ADD20C,0.00886*%
%ADD21C,0.06693*%
%ADD22C,0.03937*%
%ADD23C,0.12795*%
%ADD24C,0.02362*%
%ADD25C,0.05000*%
%ADD26C,0.01000*%
%ADD27R,0.08674X0.04737*%
%ADD28R,0.04737X0.08674*%
%ADD29R,0.06706X0.03950*%
%ADD30R,0.03950X0.04737*%
%ADD31R,0.10800X0.05800*%
%ADD32R,0.05131X0.06312*%
%ADD33R,0.01587X0.03950*%
%ADD34R,0.04737X0.04737*%
%ADD35C,0.07493*%
%ADD36C,0.04737*%
%ADD37C,0.13595*%
%ADD38C,0.03162*%
%ADD39C,0.05800*%
D26*
X169100Y156400D02*
Y160336D01*
X167132D01*
X166476Y159680D01*
Y158368D01*
X167132Y157712D01*
X169100D01*
X167788D02*
X166476Y156400D01*
X165164Y160336D02*
X162540Y156400D01*
Y160336D02*
X165164Y156400D01*
X161229Y160336D02*
Y156400D01*
X159261D01*
X158605Y157056D01*
Y159680D01*
X159261Y160336D01*
X161229D01*
X179200Y171900D02*
Y175836D01*
X177232D01*
X176576Y175180D01*
Y173868D01*
X177232Y173212D01*
X179200D01*
X177888D02*
X176576Y171900D01*
X175264Y175836D02*
X172640Y171900D01*
Y175836D02*
X175264Y171900D01*
X169100Y175836D02*
X166476D01*
X167788D01*
Y171900D01*
X165164Y175836D02*
X162540Y171900D01*
Y175836D02*
X165164Y171900D01*
X161229Y175836D02*
Y171900D01*
X159261D01*
X158605Y172556D01*
Y175180D01*
X159261Y175836D01*
X161229D01*
X179200Y160336D02*
X176576D01*
X177888D01*
Y156400D01*
X175264Y160336D02*
X172640Y156400D01*
Y160336D02*
X175264Y156400D01*
M02*
