M48
;Layer_Color=9474304
;FILE_FORMAT=2:5
INCH,LZ
;TYPE=PLATED
T1F00S00C0.01181
T2F00S00C0.02800
T3F00S00C0.03543
T4F00S00C0.03937
T5F00S00C0.11811
%
T01
X0166Y01905
Y02005
Y02105
Y02205
Y02305
Y02405
X01655Y0308
X015Y0204
X01355Y0391
X014Y0397
X01725Y0385
X01985Y037
X01905Y0326
T02
X0183Y04215
T03
X01995Y0412595
Y0424405
T04
X01335Y01505
X01935
Y01605
Y01705
Y01805
Y01905
Y02005
Y02105
Y02205
Y02305
Y02405
Y02505
Y02605
Y02705
Y02805
Y02905
X01335
Y02805
Y02705
Y02605
Y02505
Y02405
Y02305
Y02205
Y02105
Y02005
Y01905
Y01805
Y01705
Y01605
T05
X013Y01295
X0196
M30
