%FSLAX25Y25*%
%MOIN*%
G70*
G01*
G75*
G04 Layer_Color=16711935*
%ADD10R,0.07874X0.03937*%
%ADD11R,0.03937X0.07874*%
%ADD12R,0.05906X0.03150*%
%ADD13R,0.03150X0.03937*%
%ADD14R,0.10000X0.05000*%
%ADD15R,0.04331X0.05512*%
%ADD16R,0.00787X0.03150*%
%ADD17R,0.03937X0.03937*%
%ADD18C,0.01575*%
%ADD19C,0.03150*%
%ADD20C,0.00886*%
%ADD21C,0.06693*%
%ADD22C,0.03937*%
%ADD23C,0.12795*%
%ADD24C,0.02362*%
%ADD25C,0.05000*%
%ADD26C,0.01000*%
%ADD27R,0.08674X0.04737*%
%ADD28R,0.04737X0.08674*%
%ADD29R,0.06706X0.03950*%
%ADD30R,0.03950X0.04737*%
%ADD31R,0.10800X0.05800*%
%ADD32R,0.05131X0.06312*%
%ADD33R,0.01587X0.03950*%
%ADD34R,0.04737X0.04737*%
%ADD35C,0.07493*%
%ADD36C,0.04737*%
%ADD37C,0.13595*%
%ADD38C,0.03162*%
%ADD39C,0.05800*%
D31*
X177000Y150500D02*
D03*
X163000D02*
D03*
Y166000D02*
D03*
X177000D02*
D03*
D35*
X133500Y150500D02*
D03*
Y160500D02*
D03*
Y170500D02*
D03*
Y180500D02*
D03*
Y190500D02*
D03*
Y200500D02*
D03*
Y210500D02*
D03*
Y220500D02*
D03*
Y230500D02*
D03*
Y240500D02*
D03*
Y250500D02*
D03*
Y260500D02*
D03*
Y270500D02*
D03*
Y280500D02*
D03*
Y290500D02*
D03*
X193500D02*
D03*
Y280500D02*
D03*
Y270500D02*
D03*
Y260500D02*
D03*
Y250500D02*
D03*
Y240500D02*
D03*
Y230500D02*
D03*
Y220500D02*
D03*
Y210500D02*
D03*
Y200500D02*
D03*
Y190500D02*
D03*
Y180500D02*
D03*
Y170500D02*
D03*
Y160500D02*
D03*
Y150500D02*
D03*
D36*
X199500Y412595D02*
D03*
Y424405D02*
D03*
D37*
X130000Y129500D02*
D03*
X196000D02*
D03*
D38*
X172500Y385000D02*
D03*
X165500Y308000D02*
D03*
X198500Y370000D02*
D03*
X190500Y326000D02*
D03*
X140000Y397000D02*
D03*
X135500Y391000D02*
D03*
X150000Y204000D02*
D03*
X166000Y240500D02*
D03*
Y230500D02*
D03*
Y220500D02*
D03*
Y210500D02*
D03*
Y200500D02*
D03*
Y190500D02*
D03*
D39*
X183000Y421500D02*
D03*
M02*
