%FSLAX25Y25*%
%MOIN*%
G70*
G01*
G75*
G04 Layer_Color=8388736*
%ADD10R,0.07874X0.03937*%
%ADD11R,0.03937X0.07874*%
%ADD12R,0.05906X0.03150*%
%ADD13R,0.03150X0.03937*%
%ADD14R,0.10000X0.05000*%
%ADD15R,0.04331X0.05512*%
%ADD16R,0.00787X0.03150*%
%ADD17R,0.03937X0.03937*%
%ADD18C,0.01575*%
%ADD19C,0.03150*%
%ADD20C,0.00886*%
%ADD21C,0.06693*%
%ADD22C,0.03937*%
%ADD23C,0.12795*%
%ADD24C,0.02362*%
%ADD25C,0.05000*%
%ADD26C,0.01000*%
%ADD27R,0.08674X0.04737*%
%ADD28R,0.04737X0.08674*%
%ADD29R,0.06706X0.03950*%
%ADD30R,0.03950X0.04737*%
%ADD31R,0.10800X0.05800*%
%ADD32R,0.05131X0.06312*%
%ADD33R,0.01587X0.03950*%
%ADD34R,0.04737X0.04737*%
%ADD35C,0.07493*%
%ADD36C,0.04737*%
%ADD37C,0.13595*%
%ADD38C,0.03162*%
%ADD39C,0.05800*%
D27*
X131500Y326000D02*
D03*
Y331906D02*
D03*
Y337811D02*
D03*
Y343717D02*
D03*
Y349622D02*
D03*
Y355528D02*
D03*
Y361433D02*
D03*
Y367339D02*
D03*
Y373244D02*
D03*
Y379150D02*
D03*
Y385055D02*
D03*
Y390961D02*
D03*
Y396866D02*
D03*
X183600Y396900D02*
D03*
Y390995D02*
D03*
Y385089D02*
D03*
Y379184D02*
D03*
Y373278D02*
D03*
Y367372D02*
D03*
Y361467D02*
D03*
Y355561D02*
D03*
Y349656D02*
D03*
Y343750D02*
D03*
Y337845D02*
D03*
Y331939D02*
D03*
Y326034D02*
D03*
D28*
X136800Y318900D02*
D03*
X142706D02*
D03*
X148611D02*
D03*
X154516D02*
D03*
X160422D02*
D03*
X166328D02*
D03*
X172233D02*
D03*
X178139D02*
D03*
D29*
X192610Y409642D02*
D03*
Y421453D02*
D03*
Y427358D02*
D03*
D30*
X195366Y432870D02*
D03*
X203634D02*
D03*
Y404130D02*
D03*
X195366D02*
D03*
D31*
X198500Y365500D02*
D03*
Y383000D02*
D03*
D32*
X124047Y310000D02*
D03*
X129953D02*
D03*
D33*
X173409Y135630D02*
D03*
X171441D02*
D03*
X165535D02*
D03*
X167504D02*
D03*
X169472D02*
D03*
X163567D02*
D03*
X161598D02*
D03*
X159630D02*
D03*
X157661D02*
D03*
X155693D02*
D03*
X153724D02*
D03*
D34*
X149000Y125000D02*
D03*
X178134D02*
D03*
D35*
X133500Y150500D02*
D03*
Y160500D02*
D03*
Y170500D02*
D03*
Y180500D02*
D03*
Y190500D02*
D03*
Y200500D02*
D03*
Y210500D02*
D03*
Y220500D02*
D03*
Y230500D02*
D03*
Y240500D02*
D03*
Y250500D02*
D03*
Y260500D02*
D03*
Y270500D02*
D03*
Y280500D02*
D03*
Y290500D02*
D03*
X193500D02*
D03*
Y280500D02*
D03*
Y270500D02*
D03*
Y260500D02*
D03*
Y250500D02*
D03*
Y240500D02*
D03*
Y230500D02*
D03*
Y220500D02*
D03*
Y210500D02*
D03*
Y200500D02*
D03*
Y190500D02*
D03*
Y180500D02*
D03*
Y170500D02*
D03*
Y160500D02*
D03*
Y150500D02*
D03*
D36*
X199500Y412595D02*
D03*
Y424405D02*
D03*
D37*
X130000Y129500D02*
D03*
X196000D02*
D03*
D38*
X172500Y385000D02*
D03*
X165500Y308000D02*
D03*
X198500Y370000D02*
D03*
X190500Y326000D02*
D03*
X140000Y397000D02*
D03*
X135500Y391000D02*
D03*
X150000Y204000D02*
D03*
X166000Y240500D02*
D03*
Y230500D02*
D03*
Y220500D02*
D03*
Y210500D02*
D03*
Y200500D02*
D03*
Y190500D02*
D03*
D39*
X183000Y421500D02*
D03*
M02*
