%FSLAX25Y25*%
%MOIN*%
G70*
G01*
G75*
G04 Layer_Color=65535*
%ADD10R,0.07874X0.03937*%
%ADD11R,0.03937X0.07874*%
%ADD12R,0.05906X0.03150*%
%ADD13R,0.03150X0.03937*%
%ADD14R,0.10000X0.05000*%
%ADD15R,0.04331X0.05512*%
%ADD16R,0.00787X0.03150*%
%ADD17R,0.03937X0.03937*%
%ADD18C,0.01575*%
%ADD19C,0.03150*%
%ADD20C,0.00886*%
%ADD21C,0.06693*%
%ADD22C,0.03937*%
%ADD23C,0.12795*%
%ADD24C,0.02362*%
%ADD25C,0.05000*%
%ADD26C,0.01000*%
D26*
X157500Y291900D02*
X170700D01*
X157500D02*
Y303800D01*
X158300Y304600D01*
X169700D01*
X170700Y303600D01*
Y291900D02*
Y303600D01*
X187600Y146100D02*
Y298600D01*
X139100Y146100D02*
X187600D01*
X139100D02*
Y298400D01*
X139300Y298600D01*
X170700D02*
X187600D01*
X139300D02*
X157500D01*
X205800Y406900D02*
Y429900D01*
X193800Y423700D02*
Y425100D01*
Y412100D02*
Y419000D01*
X197700Y405700D02*
X201000D01*
X197900Y431500D02*
X201100D01*
X195500Y389499D02*
X199499D01*
X197499Y391498D02*
Y387500D01*
X196500Y360499D02*
X200499D01*
X140220Y126624D02*
X139564Y125968D01*
Y124656D01*
X140220Y124000D01*
X142844D01*
X143500Y124656D01*
Y125968D01*
X142844Y126624D01*
X143500Y127936D02*
X139564D01*
X143500Y130560D01*
X139564D01*
X143500Y131871D02*
Y133183D01*
Y132527D01*
X139564D01*
X140220Y131871D01*
X122000Y426936D02*
Y423656D01*
X122656Y423000D01*
X123968D01*
X124624Y423656D01*
Y426936D01*
X125936Y423000D02*
X127248D01*
X126592D01*
Y426936D01*
X125936Y426280D01*
X141500Y306936D02*
Y303656D01*
X142156Y303000D01*
X143468D01*
X144124Y303656D01*
Y306936D01*
X148060Y303000D02*
X145436D01*
X148060Y305624D01*
Y306280D01*
X147404Y306936D01*
X146092D01*
X145436Y306280D01*
X127124Y304280D02*
X126468Y304936D01*
X125156D01*
X124500Y304280D01*
Y301656D01*
X125156Y301000D01*
X126468D01*
X127124Y301656D01*
X128436Y301000D02*
X129748D01*
X129092D01*
Y304936D01*
X128436Y304280D01*
X200124Y399280D02*
X199468Y399936D01*
X198156D01*
X197500Y399280D01*
Y398624D01*
X198156Y397968D01*
X199468D01*
X200124Y397312D01*
Y396656D01*
X199468Y396000D01*
X198156D01*
X197500Y396656D01*
X201436Y396000D02*
X202748D01*
X202092D01*
Y399936D01*
X201436Y399280D01*
M02*
